<svg width="191" height="114" viewBox="0 0 191 114" fill="none" xmlns="http://www.w3.org/2000/svg">
<path fill-rule="evenodd" clip-rule="evenodd" d="M137.714 108.453C154.767 108.866 172.194 108.04 188.499 113.891C189.471 114.236 190.54 113.734 190.892 112.759C191.236 111.783 190.735 110.711 189.763 110.358C173.076 104.372 155.253 105.122 137.804 104.702C136.772 104.672 135.912 105.498 135.89 106.533C135.86 107.568 136.682 108.423 137.714 108.453Z" fill="black"/>
<path fill-rule="evenodd" clip-rule="evenodd" d="M136.181 83.6115C141.497 78.7043 147.298 75.028 154.311 73.206C155.313 72.9465 155.911 71.9225 155.656 70.9204C155.395 69.9182 154.371 69.3159 153.376 69.5755C145.751 71.5558 139.433 75.5178 133.654 80.8504C132.892 81.551 132.839 82.7384 133.542 83.5005C134.237 84.2619 135.426 84.3121 136.181 83.6115Z" fill="black"/>
<path fill-rule="evenodd" clip-rule="evenodd" d="M121.394 30.0364C123.831 21.6539 128.631 15.0964 135.987 10.361C136.855 9.80214 137.109 8.64098 136.548 7.7701C135.995 6.89922 134.836 6.64567 133.969 7.2045C125.827 12.4478 120.504 19.7043 117.805 28.9855C117.514 29.9786 118.089 31.0213 119.076 31.3108C120.071 31.6011 121.11 31.0295 121.394 30.0364Z" fill="black"/>
<path fill-rule="evenodd" clip-rule="evenodd" d="M37.3993 18.6602C35.9489 20.3727 34.648 22.218 33.5416 24.1825C33.0481 25.0571 32.1809 26.9159 32.0463 28.5099C31.8968 30.2081 32.4724 31.6409 33.9527 32.3955C35.9189 33.3961 37.489 33.2919 38.7001 32.6865C39.8664 32.1052 40.7784 30.9628 41.3541 29.431C42.4531 26.5033 42.2886 22.029 41.7129 19.4756C43.2605 17.8733 44.9576 16.4203 46.7743 15.1287C60.3061 5.50848 80.1553 9.05577 95.429 23.4399C100.774 28.4761 103.346 39.0527 104.684 50.4641C106.77 68.232 105.582 88.077 105.417 93.8911C105.38 95.3268 105.514 96.1789 105.589 96.3492C105.94 97.1863 106.561 97.4038 106.995 97.4863C107.623 97.5988 108.123 97.4788 108.527 97.2688C109.073 96.9808 109.521 96.4737 109.731 95.6913C109.843 95.2592 109.873 94.6577 109.858 94.0163C109.843 93.5715 109.753 93.0854 109.843 92.7666C110.426 90.7248 111.129 88.731 111.817 86.723C114.112 79.9727 117.08 73.6471 120.377 67.3289C130.851 47.2529 140.981 26.0405 158.154 10.745C158.924 10.0587 158.999 8.87199 158.311 8.09788C157.63 7.32376 156.449 7.25324 155.672 7.94034C138.155 23.5381 127.748 45.1158 117.065 65.5893C114.261 70.9639 111.689 76.346 109.551 81.9755C109.768 72.0171 109.686 58.2323 107.869 46.0355C106.254 35.1881 103.182 25.6017 97.9858 20.7057C81.2542 4.94815 59.4314 1.52991 44.6137 12.069C43.0287 13.1971 41.5186 14.4378 40.1131 15.7835C32.3604 1.73771 15.7633 -3.8919 1.09513 2.82609C0.153138 3.2559 -0.258042 4.36907 0.168098 5.31046C0.601713 6.25185 1.70814 6.66743 2.65013 6.23762C15.8679 0.184224 30.8577 5.5865 37.3993 18.6602ZM38.4833 23.3626C37.8777 24.2207 37.317 25.1104 36.7937 26.03C36.517 26.5236 36.0385 27.4725 35.8367 28.4011C35.7918 28.6187 35.7844 28.9592 35.7844 29.1167C36.3002 29.3718 36.7039 29.4948 37.0329 29.329C37.444 29.125 37.6534 28.6449 37.8553 28.1086C38.3637 26.7629 38.5281 24.9791 38.4833 23.3626Z" fill="black"/>
</svg>
