<svg width="97" height="95" viewBox="0 0 97 95" fill="none" xmlns="http://www.w3.org/2000/svg">
<path fill-rule="evenodd" clip-rule="evenodd" d="M15.0924 52.6341C13.5872 46.1596 11.1571 39.8498 8.7569 33.7524C8.23575 32.4415 6.75911 31.7693 5.51178 32.3399C4.21546 32.8233 3.59942 34.3029 4.07244 35.5262C6.40357 41.4334 8.78156 47.5422 10.2012 53.7216C10.498 55.0416 11.8487 55.8979 13.2053 55.6095C14.5611 55.3216 15.3884 53.9547 15.0924 52.6341Z" fill="black"/>
<path fill-rule="evenodd" clip-rule="evenodd" d="M46.7475 57.387C51.0053 43.3001 53.4515 28.7246 58.0527 14.6772C58.5032 13.4032 57.7806 11.9747 56.4745 11.5509C55.1676 11.1275 53.7311 11.8024 53.3287 13.1641C48.7003 27.2263 46.2278 41.8163 41.9429 55.9182C41.5615 57.2683 42.319 58.6772 43.6487 59.0881C44.9295 59.4117 46.3662 58.7371 46.7475 57.387Z" fill="black"/>
<path fill-rule="evenodd" clip-rule="evenodd" d="M91.4767 54.8526C86.3473 58.0104 81.2177 61.1678 76.0875 64.3261C74.8795 64.9892 74.5245 66.5536 75.2569 67.7486C75.9902 68.9432 77.4994 69.2548 78.7082 68.5913C83.8463 65.4286 88.9839 62.2669 94.1211 59.1047C95.281 58.354 95.63 56.7933 94.8906 55.6021C94.1993 54.4986 92.6357 54.1023 91.4767 54.8526Z" fill="black"/>
</svg>
