<svg width="485" height="158" viewBox="0 0 485 158" fill="none" xmlns="http://www.w3.org/2000/svg">
<path d="M88.5499 0.0700684H0.459961V26.3201H88.5499V0.0700684Z" fill="#FFB318"/>
<path d="M88.5499 98.2501V124.5H0.459961V49.7201H87.19V75.9701H29.95V98.2501H88.5499Z" fill="#2258A5"/>
<path d="M183.32 71.0001L183.16 71.2501V124.51H153.67V71.2501L107.26 0.0700684H140.98L168.36 44.3701L168.4 44.3101L183.32 71.0001Z" fill="#2258A5"/>
<path d="M229.21 0.0700684L199.92 45.3501L183.79 19.1801L195.48 0.0700684H229.21Z" fill="#349C55"/>
<path d="M336.05 98.25H247.96V124.5H336.05V98.25Z" fill="#FFB318"/>
<path d="M336.05 26.3301V0.0700684H247.96V74.86H334.68V48.6001H277.45V26.3301H336.05Z" fill="#2258A5"/>
<path d="M449.74 35.3201H419.61L419.59 35.2801L388.23 124.51H354.76L402.91 0.0700684H436.14L449.74 35.3201Z" fill="#2258A5"/>
<path d="M484.17 124.51H450.81L435.27 80.0901L428.79 61.5901H459.88L484.17 124.51Z" fill="#349C55"/>
<path d="M7.51013 152.02H1.86014V156.04H8.07014L7.88014 157.33H0.390137V145.96H7.79013V147.25H1.87013V150.72H7.52014V152.01L7.51013 152.02Z" fill="#58595B"/>
<path d="M15.0401 147.26H11.3701V145.97H20.2401V147.26H16.5601V157.34H15.0401V147.26Z" fill="#58595B"/>
<path d="M23.9802 145.97H25.4902V150.72H31.4202V145.97H32.9302V157.34H31.4202V152.01H25.4902V157.34H23.9802V145.97Z" fill="#58595B"/>
<path d="M39.6401 145.97V157.34H38.1301V145.97H39.6401Z" fill="#58595B"/>
<path d="M54.6601 151.59C54.6601 154.72 52.9101 157.5 49.3301 157.5C45.9801 157.5 44.1201 154.91 44.1201 151.65C44.1201 148.39 46.0301 145.8 49.4701 145.8C52.6701 145.8 54.6701 148.2 54.6701 151.58L54.6601 151.59ZM45.6901 151.61C45.6901 154.07 46.9501 156.22 49.3901 156.22C52.0301 156.22 53.0801 154.04 53.0801 151.62C53.0801 149.2 51.8901 147.1 49.3901 147.1C46.8901 147.1 45.6801 149.19 45.6801 151.61H45.6901Z" fill="#58595B"/>
<path d="M59.1401 145.97H63.4601C65.6701 145.97 67.1901 147.21 67.1901 149.28C67.1901 151.5 65.6001 152.67 63.3701 152.67H60.6601V157.34H59.1401V145.97ZM60.6601 151.4H63.2901C64.8501 151.4 65.6301 150.64 65.6301 149.32C65.6301 148 64.6901 147.24 63.3501 147.24H60.6601V151.4Z" fill="#58595B"/>
<path d="M72.9602 145.97V157.34H71.4502V145.97H72.9602Z" fill="#58595B"/>
<path d="M79.6502 153.93L78.4302 157.34H76.9302L80.9802 145.97H82.8402L87.0602 157.34H85.4502L84.1902 153.93H79.6502ZM83.8002 152.64C82.7202 149.65 82.1202 148.06 81.8702 147.2H81.8502C81.5702 148.17 80.9102 150.09 80.0302 152.64H83.7902H83.8002Z" fill="#58595B"/>
<path d="M90.9802 157.34V145.97H92.9802C94.6102 148.63 98.1602 154.28 98.7902 155.52H98.8102C98.7002 154.06 98.7102 152.27 98.7102 150.41V145.97H100.14V157.34H98.2702C96.7702 154.87 93.0702 148.79 92.3602 147.51H92.3402C92.4202 148.81 92.4202 150.73 92.4202 152.78V157.33H90.9902L90.9802 157.34Z" fill="#58595B"/>
<path d="M120.29 157.34V153.17C120.29 153.06 120.26 152.95 120.21 152.87L116.21 145.97H117.93C118.96 147.82 120.61 150.75 121.13 151.75C121.62 150.77 123.32 147.81 124.39 145.97H126L121.87 152.89C121.83 152.96 121.8 153.02 121.8 153.18V157.34H120.28H120.29Z" fill="#58595B"/>
<path d="M139.1 151.59C139.1 154.72 137.35 157.5 133.77 157.5C130.42 157.5 128.56 154.91 128.56 151.65C128.56 148.39 130.47 145.8 133.91 145.8C137.11 145.8 139.11 148.2 139.11 151.58L139.1 151.59ZM130.13 151.61C130.13 154.07 131.39 156.22 133.83 156.22C136.47 156.22 137.52 154.04 137.52 151.62C137.52 149.2 136.33 147.1 133.83 147.1C131.33 147.1 130.12 149.19 130.12 151.61H130.13Z" fill="#58595B"/>
<path d="M145.06 145.97V152.81C145.06 155.5 146.53 156.22 147.99 156.22C149.69 156.22 150.9 155.44 150.9 152.81V145.97H152.42V152.73C152.42 156.42 150.38 157.48 147.96 157.48C145.54 157.48 143.54 156.33 143.54 152.84V145.97H145.07H145.06Z" fill="#58595B"/>
<path d="M159.91 147.26H156.24V145.97H165.11V147.26H161.43V157.34H159.91V147.26Z" fill="#58595B"/>
<path d="M168.85 145.97H170.36V150.72H176.29V145.97H177.8V157.34H176.29V152.01H170.36V157.34H168.85V145.97Z" fill="#58595B"/>
<path d="M196.29 152.02H190.64V156.04H196.85L196.66 157.33H189.17V145.96H196.57V147.25H190.65V150.72H196.3V152.01L196.29 152.02Z" fill="#58595B"/>
<path d="M201.02 157.34V145.97H203.02C204.65 148.63 208.2 154.28 208.83 155.52H208.85C208.74 154.06 208.75 152.27 208.75 150.41V145.97H210.18V157.34H208.31C206.81 154.87 203.11 148.79 202.4 147.51H202.38C202.46 148.81 202.46 150.73 202.46 152.78V157.33H201.03L201.02 157.34Z" fill="#58595B"/>
<path d="M217.74 147.26H214.07V145.97H222.94V147.26H219.26V157.34H217.74V147.26Z" fill="#58595B"/>
<path d="M228.18 152.33V157.34H226.69V145.97H231.13C233.47 145.97 234.71 147.24 234.71 149.01C234.71 150.49 233.86 151.38 232.77 151.68C233.7 151.93 234.5 152.62 234.5 154.59V155.08C234.5 155.86 234.46 156.86 234.65 157.33H233.18C232.97 156.84 232.99 155.95 232.99 154.89V154.65C232.99 153.03 232.53 152.33 230.49 152.33H228.17H228.18ZM228.18 151.06H230.65C232.39 151.06 233.15 150.41 233.15 149.13C233.15 147.92 232.36 147.24 230.82 147.24H228.18V151.06Z" fill="#58595B"/>
<path d="M246.51 152.02H240.86V156.04H247.07L246.88 157.33H239.39V145.96H246.79V147.25H240.87V150.72H246.52V152.01L246.51 152.02Z" fill="#58595B"/>
<path d="M251.24 145.97H255.56C257.77 145.97 259.29 147.21 259.29 149.28C259.29 151.5 257.7 152.67 255.47 152.67H252.76V157.34H251.24V145.97ZM252.76 151.4H255.39C256.95 151.4 257.73 150.64 257.73 149.32C257.73 148 256.79 147.24 255.45 147.24H252.76V151.4Z" fill="#58595B"/>
<path d="M265.04 152.33V157.34H263.55V145.97H267.99C270.33 145.97 271.57 147.24 271.57 149.01C271.57 150.49 270.72 151.38 269.63 151.68C270.56 151.93 271.36 152.62 271.36 154.59V155.08C271.36 155.86 271.32 156.86 271.51 157.33H270.04C269.83 156.84 269.85 155.95 269.85 154.89V154.65C269.85 153.03 269.39 152.33 267.35 152.33H265.03H265.04ZM265.04 151.06H267.51C269.25 151.06 270.01 150.41 270.01 149.13C270.01 147.92 269.22 147.24 267.68 147.24H265.04V151.06Z" fill="#58595B"/>
<path d="M283.38 152.02H277.73V156.04H283.94L283.75 157.33H276.26V145.96H283.66V147.25H277.74V150.72H283.39V152.01L283.38 152.02Z" fill="#58595B"/>
<path d="M288.11 157.34V145.97H290.11C291.74 148.63 295.29 154.28 295.92 155.52H295.94C295.83 154.06 295.84 152.27 295.84 150.41V145.97H297.27V157.34H295.4C293.9 154.87 290.2 148.79 289.49 147.51H289.47C289.55 148.81 289.55 150.73 289.55 152.78V157.33H288.12L288.11 157.34Z" fill="#58595B"/>
<path d="M309.62 152.02H303.97V156.04H310.18L309.99 157.33H302.5V145.96H309.9V147.25H303.98V150.72H309.63V152.01L309.62 152.02Z" fill="#58595B"/>
<path d="M315.77 145.97V152.81C315.77 155.5 317.24 156.22 318.7 156.22C320.4 156.22 321.61 155.44 321.61 152.81V145.97H323.13V152.73C323.13 156.42 321.09 157.48 318.67 157.48C316.25 157.48 314.25 156.33 314.25 152.84V145.97H315.78H315.77Z" fill="#58595B"/>
<path d="M329.69 152.33V157.34H328.2V145.97H332.64C334.98 145.97 336.22 147.24 336.22 149.01C336.22 150.49 335.37 151.38 334.28 151.68C335.21 151.93 336.01 152.62 336.01 154.59V155.08C336.01 155.86 335.97 156.86 336.16 157.33H334.69C334.48 156.84 334.5 155.95 334.5 154.89V154.65C334.5 153.03 334.04 152.33 332 152.33H329.68H329.69ZM329.69 151.06H332.16C333.9 151.06 334.66 150.41 334.66 149.13C334.66 147.92 333.87 147.24 332.33 147.24H329.69V151.06Z" fill="#58595B"/>
<path d="M341.59 154.17C341.9 155.53 342.83 156.27 344.48 156.27C346.25 156.27 346.96 155.44 346.96 154.36C346.96 153.22 346.4 152.58 344.12 152.03C341.44 151.38 340.51 150.46 340.51 148.86C340.51 147.17 341.75 145.8 344.29 145.8C347 145.8 348.11 147.36 348.26 148.86H346.73C346.53 147.85 345.89 147.02 344.23 147.02C342.85 147.02 342.07 147.64 342.07 148.73C342.07 149.82 342.71 150.22 344.7 150.7C347.94 151.49 348.52 152.75 348.52 154.21C348.52 156.04 347.16 157.48 344.38 157.48C341.6 157.48 340.29 155.92 340.05 154.17H341.58H341.59Z" fill="#58595B"/>
<path d="M360.72 153.93L359.5 157.34H358L362.05 145.97H363.91L368.13 157.34H366.52L365.26 153.93H360.72ZM364.87 152.64C363.79 149.65 363.19 148.06 362.94 147.2H362.92C362.64 148.17 361.98 150.09 361.1 152.64H364.86H364.87Z" fill="#58595B"/>
<path d="M372.87 154.17C373.18 155.53 374.11 156.27 375.76 156.27C377.53 156.27 378.24 155.44 378.24 154.36C378.24 153.22 377.68 152.58 375.4 152.03C372.72 151.38 371.79 150.46 371.79 148.86C371.79 147.17 373.03 145.8 375.57 145.8C378.28 145.8 379.39 147.36 379.54 148.86H378.01C377.81 147.85 377.17 147.02 375.51 147.02C374.13 147.02 373.35 147.64 373.35 148.73C373.35 149.82 373.99 150.22 375.98 150.7C379.22 151.49 379.8 152.75 379.8 154.21C379.8 156.04 378.44 157.48 375.66 157.48C372.88 157.48 371.57 155.92 371.33 154.17H372.86H372.87Z" fill="#58595B"/>
<path d="M384.99 154.17C385.3 155.53 386.23 156.27 387.88 156.27C389.65 156.27 390.36 155.44 390.36 154.36C390.36 153.22 389.8 152.58 387.52 152.03C384.84 151.38 383.91 150.46 383.91 148.86C383.91 147.17 385.15 145.8 387.69 145.8C390.4 145.8 391.51 147.36 391.66 148.86H390.13C389.93 147.85 389.29 147.02 387.63 147.02C386.25 147.02 385.47 147.64 385.47 148.73C385.47 149.82 386.11 150.22 388.1 150.7C391.34 151.49 391.92 152.75 391.92 154.21C391.92 156.04 390.56 157.48 387.78 157.48C385 157.48 383.69 155.92 383.45 154.17H384.98H384.99Z" fill="#58595B"/>
<path d="M406.27 151.59C406.27 154.72 404.52 157.5 400.94 157.5C397.59 157.5 395.73 154.91 395.73 151.65C395.73 148.39 397.64 145.8 401.08 145.8C404.28 145.8 406.28 148.2 406.28 151.58L406.27 151.59ZM397.3 151.61C397.3 154.07 398.56 156.22 401 156.22C403.64 156.22 404.69 154.04 404.69 151.62C404.69 149.2 403.5 147.1 401 147.1C398.5 147.1 397.29 149.19 397.29 151.61H397.3Z" fill="#58595B"/>
<path d="M419.76 154.11C419.26 156.04 417.82 157.48 415.24 157.48C411.84 157.48 410.12 154.9 410.12 151.69C410.12 148.48 411.84 145.81 415.29 145.81C417.97 145.81 419.43 147.34 419.76 149.24H418.25C417.84 148 417.02 147.07 415.23 147.07C412.72 147.07 411.7 149.35 411.7 151.65C411.7 153.95 412.67 156.23 415.3 156.23C417.05 156.23 417.82 155.23 418.25 154.12H419.76V154.11Z" fill="#58595B"/>
<path d="M425.61 145.97V157.34H424.1V145.97H425.61Z" fill="#58595B"/>
<path d="M432.31 153.93L431.09 157.34H429.59L433.64 145.97H435.5L439.72 157.34H438.11L436.85 153.93H432.31ZM436.46 152.64C435.38 149.65 434.78 148.06 434.53 147.2H434.51C434.23 148.17 433.57 150.09 432.69 152.64H436.45H436.46Z" fill="#58595B"/>
<path d="M444.6 147.26H440.93V145.97H449.8V147.26H446.12V157.34H444.6V147.26Z" fill="#58595B"/>
<path d="M455.04 145.97V157.34H453.53V145.97H455.04Z" fill="#58595B"/>
<path d="M470.07 151.59C470.07 154.72 468.32 157.5 464.74 157.5C461.39 157.5 459.53 154.91 459.53 151.65C459.53 148.39 461.44 145.8 464.88 145.8C468.08 145.8 470.08 148.2 470.08 151.58L470.07 151.59ZM461.1 151.61C461.1 154.07 462.36 156.22 464.8 156.22C467.44 156.22 468.49 154.04 468.49 151.62C468.49 149.2 467.3 147.1 464.8 147.1C462.3 147.1 461.09 149.19 461.09 151.61H461.1Z" fill="#58595B"/>
<path d="M474.55 157.34V145.97H476.55C478.18 148.63 481.73 154.28 482.36 155.52H482.38C482.27 154.06 482.28 152.27 482.28 150.41V145.97H483.71V157.34H481.84C480.34 154.87 476.64 148.79 475.93 147.51H475.91C475.99 148.81 475.99 150.73 475.99 152.78V157.33H474.56L474.55 157.34Z" fill="#58595B"/>
</svg>
